<svg id="visual" viewBox="0 0 960 540" width="960" height="540" xmlns="http://www.w3.org/2000/svg" xmlns:xlink="http://www.w3.org/1999/xlink" version="1.1"><g stroke-width="1" stroke-linejoin="bevel"><path d="M514 248L566.6 207.5L513 196.5Z" fill="#f4f4f6" stroke="#f4f4f6"></path><path d="M514 248L564.6 279L566.6 207.5Z" fill="#e6e5e6" stroke="#e6e5e6"></path><path d="M583.1 147L499 156L513 196.5Z" fill="#ededee" stroke="#ededee"></path><path d="M513 196.5L449.4 216.5L514 248Z" fill="#f0f1f2" stroke="#f0f1f2"></path><path d="M499 156L449.4 216.5L513 196.5Z" fill="#ededee" stroke="#ededee"></path><path d="M554.6 383L581.6 344.5L564.6 279Z" fill="#eae9ea" stroke="#eae9ea"></path><path d="M685.7 221.5L603.1 164.5L566.6 207.5Z" fill="#e6e5e6" stroke="#e6e5e6"></path><path d="M566.6 207.5L583.1 147L513 196.5Z" fill="#d8d7d7" stroke="#d8d7d7"></path><path d="M603.1 164.5L583.1 147L566.6 207.5Z" fill="#e6e5e6" stroke="#e6e5e6"></path><path d="M564.6 279L608.1 292L566.6 207.5Z" fill="#f0f1f2" stroke="#f0f1f2"></path><path d="M613.1 41.5L553.6 105L583.1 147Z" fill="#f4f4f6" stroke="#f4f4f6"></path><path d="M583.1 147L553.6 105L499 156Z" fill="#f0f1f2" stroke="#f0f1f2"></path><path d="M554.6 383L564.6 279L445 359.5Z" fill="#f4f4f6" stroke="#f4f4f6"></path><path d="M564.6 279L581.6 344.5L608.1 292Z" fill="#eae9ea" stroke="#eae9ea"></path><path d="M449.4 216.5L420.4 308.5L514 248Z" fill="#f7f8f9" stroke="#f7f8f9"></path><path d="M403.4 278L420.4 308.5L449.4 216.5Z" fill="#f0f1f2" stroke="#f0f1f2"></path><path d="M481 75.5L436.4 114L499 156Z" fill="#d8d7d7" stroke="#d8d7d7"></path><path d="M499 156L436.4 114L449.4 216.5Z" fill="#f7f8f9" stroke="#f7f8f9"></path><path d="M449.4 216.5L325.9 171.5L403.4 278Z" fill="#e6e5e6" stroke="#e6e5e6"></path><path d="M706.7 284L685.7 221.5L608.1 292Z" fill="#f7f8f9" stroke="#f7f8f9"></path><path d="M608.1 292L685.7 221.5L566.6 207.5Z" fill="#f4f4f6" stroke="#f4f4f6"></path><path d="M603.1 164.5L670.7 98L583.1 147Z" fill="#f0f1f2" stroke="#f0f1f2"></path><path d="M553.6 105L481 75.5L499 156Z" fill="#f7f8f9" stroke="#f7f8f9"></path><path d="M554.6 383L593.1 370.5L581.6 344.5Z" fill="#dcdbdb" stroke="#dcdbdb"></path><path d="M581.6 344.5L593.1 370.5L608.1 292Z" fill="#eae9ea" stroke="#eae9ea"></path><path d="M445 359.5L564.6 279L514 248Z" fill="#eae9ea" stroke="#eae9ea"></path><path d="M369.9 340.5L445 359.5L420.4 308.5Z" fill="#fafcfd" stroke="#fafcfd"></path><path d="M420.4 308.5L445 359.5L514 248Z" fill="#f4f4f6" stroke="#f4f4f6"></path><path d="M695.7 312.5L706.7 284L608.1 292Z" fill="#f4f4f6" stroke="#f4f4f6"></path><path d="M723.3 208.5L670.7 98L685.7 221.5Z" fill="#f7f8f9" stroke="#f7f8f9"></path><path d="M685.7 221.5L670.7 98L603.1 164.5Z" fill="#dcdbdb" stroke="#dcdbdb"></path><path d="M553.6 105L553.6 34.5L481 75.5Z" fill="#dfdede" stroke="#dfdede"></path><path d="M593.1 370.5L695.7 312.5L608.1 292Z" fill="#f4f4f6" stroke="#f4f4f6"></path><path d="M727.3 250L723.3 208.5L685.7 221.5Z" fill="#f4f4f6" stroke="#f4f4f6"></path><path d="M613.1 41.5L553.6 34.5L553.6 105Z" fill="#fafcfd" stroke="#fafcfd"></path><path d="M801.9 294L727.3 250L706.7 284Z" fill="#d8d7d7" stroke="#d8d7d7"></path><path d="M706.7 284L727.3 250L685.7 221.5Z" fill="#f4f4f6" stroke="#f4f4f6"></path><path d="M445 359.5L487 410L554.6 383Z" fill="#dfdede" stroke="#dfdede"></path><path d="M590.1 439.5L631.1 424L593.1 370.5Z" fill="#f0f1f2" stroke="#f0f1f2"></path><path d="M670.7 98L613.1 41.5L583.1 147Z" fill="#e3e2e2" stroke="#e3e2e2"></path><path d="M400.4 64.5L379.9 96.5L436.4 114Z" fill="#dfdede" stroke="#dfdede"></path><path d="M436.4 114L325.9 171.5L449.4 216.5Z" fill="#d8d7d7" stroke="#d8d7d7"></path><path d="M374.9 95L379.9 96.5L400.4 64.5Z" fill="#dfdede" stroke="#dfdede"></path><path d="M403.4 278L369.9 340.5L420.4 308.5Z" fill="#e3e2e2" stroke="#e3e2e2"></path><path d="M445 359.5L413.4 414L487 410Z" fill="#dfdede" stroke="#dfdede"></path><path d="M310.9 264L369.9 340.5L403.4 278Z" fill="#dcdbdb" stroke="#dcdbdb"></path><path d="M400.4 64.5L436.4 114L481 75.5Z" fill="#e6e5e6" stroke="#e6e5e6"></path><path d="M379.9 96.5L325.9 171.5L436.4 114Z" fill="#dfdede" stroke="#dfdede"></path><path d="M483 0L400.4 64.5L481 75.5Z" fill="#f0f1f2" stroke="#f0f1f2"></path><path d="M448 441.5L519.6 433.5L487 410Z" fill="#fafcfd" stroke="#fafcfd"></path><path d="M487 410L519.6 433.5L554.6 383Z" fill="#f0f1f2" stroke="#f0f1f2"></path><path d="M593.1 370.5L631.1 424L695.7 312.5Z" fill="#f7f8f9" stroke="#f7f8f9"></path><path d="M374.9 95L325.9 171.5L379.9 96.5Z" fill="#ededee" stroke="#ededee"></path><path d="M742.3 120L685.7 62.5L670.7 98Z" fill="#d8d7d7" stroke="#d8d7d7"></path><path d="M670.7 98L685.7 62.5L613.1 41.5Z" fill="#f0f1f2" stroke="#f0f1f2"></path><path d="M645.1 0L513.6 0L553.6 34.5Z" fill="#fafcfd" stroke="#fafcfd"></path><path d="M553.6 34.5L513.6 0L481 75.5Z" fill="#f0f1f2" stroke="#f0f1f2"></path><path d="M645.1 0L553.6 34.5L613.1 41.5Z" fill="#d8d7d7" stroke="#d8d7d7"></path><path d="M590.1 439.5L593.1 370.5L554.6 383Z" fill="#e6e5e6" stroke="#e6e5e6"></path><path d="M519.6 433.5L590.1 439.5L554.6 383Z" fill="#f7f8f9" stroke="#f7f8f9"></path><path d="M369.9 340.5L413.4 414L445 359.5Z" fill="#f4f4f6" stroke="#f4f4f6"></path><path d="M513.6 0L483 0L481 75.5Z" fill="#d8d7d7" stroke="#d8d7d7"></path><path d="M325.9 171.5L310.9 264L403.4 278Z" fill="#eae9ea" stroke="#eae9ea"></path><path d="M369.9 340.5L332.9 409L413.4 414Z" fill="#dcdbdb" stroke="#dcdbdb"></path><path d="M818.9 167.5L742.3 120L723.3 208.5Z" fill="#e3e2e2" stroke="#e3e2e2"></path><path d="M723.3 208.5L742.3 120L670.7 98Z" fill="#ededee" stroke="#ededee"></path><path d="M413.4 414L448 441.5L487 410Z" fill="#f7f8f9" stroke="#f7f8f9"></path><path d="M519.6 433.5L532.6 540L590.1 439.5Z" fill="#eae9ea" stroke="#eae9ea"></path><path d="M688.7 0L645.1 0L685.7 62.5Z" fill="#e3e2e2" stroke="#e3e2e2"></path><path d="M685.7 62.5L645.1 0L613.1 41.5Z" fill="#d8d7d7" stroke="#d8d7d7"></path><path d="M697.7 424L739.3 368.5L695.7 312.5Z" fill="#f7f8f9" stroke="#f7f8f9"></path><path d="M695.7 312.5L739.3 368.5L706.7 284Z" fill="#eae9ea" stroke="#eae9ea"></path><path d="M727.3 250L818.9 167.5L723.3 208.5Z" fill="#ededee" stroke="#ededee"></path><path d="M631.1 424L697.7 424L695.7 312.5Z" fill="#dfdede" stroke="#dfdede"></path><path d="M722.7 491.5L697.7 424L631.1 424Z" fill="#f0f1f2" stroke="#f0f1f2"></path><path d="M822.9 100L746.3 59.5L742.3 120Z" fill="#e6e5e6" stroke="#e6e5e6"></path><path d="M742.3 120L746.3 59.5L685.7 62.5Z" fill="#e3e2e2" stroke="#e3e2e2"></path><path d="M746.3 59.5L688.7 0L685.7 62.5Z" fill="#eae9ea" stroke="#eae9ea"></path><path d="M810.9 347.5L801.9 294L739.3 368.5Z" fill="#eae9ea" stroke="#eae9ea"></path><path d="M739.3 368.5L801.9 294L706.7 284Z" fill="#fafcfd" stroke="#fafcfd"></path><path d="M260.3 310.5L332.9 409L369.9 340.5Z" fill="#f0f1f2" stroke="#f0f1f2"></path><path d="M413.4 414L402.4 506.5L448 441.5Z" fill="#f0f1f2" stroke="#f0f1f2"></path><path d="M400.4 64.5L371.4 0L374.9 95Z" fill="#e6e5e6" stroke="#e6e5e6"></path><path d="M374.9 95L256.3 98L325.9 171.5Z" fill="#d8d7d7" stroke="#d8d7d7"></path><path d="M483 0L371.4 0L400.4 64.5Z" fill="#fafcfd" stroke="#fafcfd"></path><path d="M801.9 294L818.9 167.5L727.3 250Z" fill="#f7f8f9" stroke="#f7f8f9"></path><path d="M239.3 233.5L250.3 264L310.9 264Z" fill="#e6e5e6" stroke="#e6e5e6"></path><path d="M310.9 264L260.3 310.5L369.9 340.5Z" fill="#d8d7d7" stroke="#d8d7d7"></path><path d="M239.3 233.5L310.9 264L325.9 171.5Z" fill="#fafcfd" stroke="#fafcfd"></path><path d="M250.3 264L260.3 310.5L310.9 264Z" fill="#e6e5e6" stroke="#e6e5e6"></path><path d="M219.7 223.5L239.3 233.5L325.9 171.5Z" fill="#f4f4f6" stroke="#f4f4f6"></path><path d="M188.7 285L230.7 336.5L260.3 310.5Z" fill="#f7f8f9" stroke="#f7f8f9"></path><path d="M790.3 427L810.9 347.5L739.3 368.5Z" fill="#d8d7d7" stroke="#d8d7d7"></path><path d="M801.9 294L853.4 288L818.9 167.5Z" fill="#ededee" stroke="#ededee"></path><path d="M319.9 0L256.3 98L374.9 95Z" fill="#e3e2e2" stroke="#e3e2e2"></path><path d="M371.4 0L319.9 0L374.9 95Z" fill="#d8d7d7" stroke="#d8d7d7"></path><path d="M285.3 423L356.9 474.5L332.9 409Z" fill="#f0f1f2" stroke="#f0f1f2"></path><path d="M332.9 409L356.9 474.5L413.4 414Z" fill="#ededee" stroke="#ededee"></path><path d="M463 540L532.6 540L519.6 433.5Z" fill="#fafcfd" stroke="#fafcfd"></path><path d="M670.7 540L722.7 491.5L631.1 424Z" fill="#e3e2e2" stroke="#e3e2e2"></path><path d="M870.4 155L822.9 100L818.9 167.5Z" fill="#e3e2e2" stroke="#e3e2e2"></path><path d="M818.9 167.5L822.9 100L742.3 120Z" fill="#fafcfd" stroke="#fafcfd"></path><path d="M746.3 59.5L761.3 0L688.7 0Z" fill="#f7f8f9" stroke="#f7f8f9"></path><path d="M356.9 474.5L402.4 506.5L413.4 414Z" fill="#f4f4f6" stroke="#f4f4f6"></path><path d="M239.3 233.5L188.7 285L250.3 264Z" fill="#e3e2e2" stroke="#e3e2e2"></path><path d="M256.3 98L219.7 223.5L325.9 171.5Z" fill="#d8d7d7" stroke="#d8d7d7"></path><path d="M853.9 32.5L761.3 0L746.3 59.5Z" fill="#f4f4f6" stroke="#f4f4f6"></path><path d="M463 540L519.6 433.5L448 441.5Z" fill="#dcdbdb" stroke="#dcdbdb"></path><path d="M697.7 424L790.3 427L739.3 368.5Z" fill="#f4f4f6" stroke="#f4f4f6"></path><path d="M260.3 310.5L285.3 423L332.9 409Z" fill="#d8d7d7" stroke="#d8d7d7"></path><path d="M230.7 336.5L285.3 423L260.3 310.5Z" fill="#ededee" stroke="#ededee"></path><path d="M319.9 0L299.3 0L256.3 98Z" fill="#e3e2e2" stroke="#e3e2e2"></path><path d="M299.3 0L246.3 75.5L256.3 98Z" fill="#f0f1f2" stroke="#f0f1f2"></path><path d="M256.3 98L169.7 139L219.7 223.5Z" fill="#fafcfd" stroke="#fafcfd"></path><path d="M810.9 347.5L853.4 288L801.9 294Z" fill="#e3e2e2" stroke="#e3e2e2"></path><path d="M188.7 285L260.3 310.5L250.3 264Z" fill="#e3e2e2" stroke="#e3e2e2"></path><path d="M402.4 506.5L463 540L448 441.5Z" fill="#dfdede" stroke="#dfdede"></path><path d="M722.7 491.5L790.3 427L697.7 424Z" fill="#e3e2e2" stroke="#e3e2e2"></path><path d="M810.9 347.5L871.4 312.5L853.4 288Z" fill="#d8d7d7" stroke="#d8d7d7"></path><path d="M622.1 540L631.1 424L590.1 439.5Z" fill="#f0f1f2" stroke="#f0f1f2"></path><path d="M532.6 540L622.1 540L590.1 439.5Z" fill="#fafcfd" stroke="#fafcfd"></path><path d="M885.4 182.5L870.4 155L818.9 167.5Z" fill="#dcdbdb" stroke="#dcdbdb"></path><path d="M822.9 100L853.9 32.5L746.3 59.5Z" fill="#f7f8f9" stroke="#f7f8f9"></path><path d="M371.9 540L402.4 506.5L356.9 474.5Z" fill="#eae9ea" stroke="#eae9ea"></path><path d="M371.9 540L401.4 540L402.4 506.5Z" fill="#e3e2e2" stroke="#e3e2e2"></path><path d="M402.4 506.5L401.4 540L463 540Z" fill="#f0f1f2" stroke="#f0f1f2"></path><path d="M622.1 540L670.7 540L631.1 424Z" fill="#ededee" stroke="#ededee"></path><path d="M914.4 396L871.4 312.5L810.9 347.5Z" fill="#eae9ea" stroke="#eae9ea"></path><path d="M853.4 288L885.4 182.5L818.9 167.5Z" fill="#e3e2e2" stroke="#e3e2e2"></path><path d="M960 198.5L885.4 182.5L960 252Z" fill="#f7f8f9" stroke="#f7f8f9"></path><path d="M136.1 284L188.7 285L219.7 223.5Z" fill="#dcdbdb" stroke="#dcdbdb"></path><path d="M219.7 223.5L188.7 285L239.3 233.5Z" fill="#dcdbdb" stroke="#dcdbdb"></path><path d="M189.7 375L271.3 472.5L285.3 423Z" fill="#f0f1f2" stroke="#f0f1f2"></path><path d="M272.3 540L371.9 540L356.9 474.5Z" fill="#eae9ea" stroke="#eae9ea"></path><path d="M189.7 375L285.3 423L230.7 336.5Z" fill="#dfdede" stroke="#dfdede"></path><path d="M285.3 423L271.3 472.5L356.9 474.5Z" fill="#d8d7d7" stroke="#d8d7d7"></path><path d="M799.9 488.5L832.9 439L790.3 427Z" fill="#f7f8f9" stroke="#f7f8f9"></path><path d="M790.3 427L832.9 439L810.9 347.5Z" fill="#e3e2e2" stroke="#e3e2e2"></path><path d="M791.3 492.5L790.3 427L722.7 491.5Z" fill="#dfdede" stroke="#dfdede"></path><path d="M884.4 55.5L853.9 32.5L822.9 100Z" fill="#ededee" stroke="#ededee"></path><path d="M884.4 55.5L822.9 100L870.4 155Z" fill="#f4f4f6" stroke="#f4f4f6"></path><path d="M770.3 540L791.3 492.5L722.7 491.5Z" fill="#e3e2e2" stroke="#e3e2e2"></path><path d="M201.7 38.5L169.7 139L246.3 75.5Z" fill="#fafcfd" stroke="#fafcfd"></path><path d="M246.3 75.5L169.7 139L256.3 98Z" fill="#e3e2e2" stroke="#e3e2e2"></path><path d="M791.3 492.5L799.9 488.5L790.3 427Z" fill="#dfdede" stroke="#dfdede"></path><path d="M151.1 320.5L230.7 336.5L188.7 285Z" fill="#dfdede" stroke="#dfdede"></path><path d="M151.1 320.5L189.7 375L230.7 336.5Z" fill="#ededee" stroke="#ededee"></path><path d="M299.3 0L201.7 38.5L246.3 75.5Z" fill="#e6e5e6" stroke="#e6e5e6"></path><path d="M907.4 0L851.9 0L853.9 32.5Z" fill="#f4f4f6" stroke="#f4f4f6"></path><path d="M853.9 32.5L851.9 0L761.3 0Z" fill="#f4f4f6" stroke="#f4f4f6"></path><path d="M960 130L884.4 55.5L870.4 155Z" fill="#ededee" stroke="#ededee"></path><path d="M670.7 540L770.3 540L722.7 491.5Z" fill="#dcdbdb" stroke="#dcdbdb"></path><path d="M791.3 492.5L810.9 540L799.9 488.5Z" fill="#eae9ea" stroke="#eae9ea"></path><path d="M914.4 489.5L914.4 396L832.9 439Z" fill="#e3e2e2" stroke="#e3e2e2"></path><path d="M136.1 284L151.1 320.5L188.7 285Z" fill="#d8d7d7" stroke="#d8d7d7"></path><path d="M299.3 0L203.7 0L201.7 38.5Z" fill="#ededee" stroke="#ededee"></path><path d="M141.1 35.5L141.1 152L169.7 139Z" fill="#eae9ea" stroke="#eae9ea"></path><path d="M141.1 35.5L169.7 139L201.7 38.5Z" fill="#ededee" stroke="#ededee"></path><path d="M169.7 139L141.1 152L219.7 223.5Z" fill="#dfdede" stroke="#dfdede"></path><path d="M103.1 215.5L136.1 284L219.7 223.5Z" fill="#ededee" stroke="#ededee"></path><path d="M240.7 540L272.3 540L271.3 472.5Z" fill="#fafcfd" stroke="#fafcfd"></path><path d="M271.3 472.5L272.3 540L356.9 474.5Z" fill="#e3e2e2" stroke="#e3e2e2"></path><path d="M161.1 402L271.3 472.5L189.7 375Z" fill="#fafcfd" stroke="#fafcfd"></path><path d="M81.6 349.5L161.1 402L151.1 320.5Z" fill="#f7f8f9" stroke="#f7f8f9"></path><path d="M151.1 320.5L161.1 402L189.7 375Z" fill="#fafcfd" stroke="#fafcfd"></path><path d="M832.9 439L914.4 396L810.9 347.5Z" fill="#f0f1f2" stroke="#f0f1f2"></path><path d="M960 252L885.4 182.5L853.4 288Z" fill="#ededee" stroke="#ededee"></path><path d="M885.4 182.5L960 130L870.4 155Z" fill="#dfdede" stroke="#dfdede"></path><path d="M914.4 489.5L832.9 439L799.9 488.5Z" fill="#ededee" stroke="#ededee"></path><path d="M770.3 540L810.9 540L791.3 492.5Z" fill="#f4f4f6" stroke="#f4f4f6"></path><path d="M960 252L853.4 288L871.4 312.5Z" fill="#d8d7d7" stroke="#d8d7d7"></path><path d="M960 360.5L960 252L871.4 312.5Z" fill="#dcdbdb" stroke="#dcdbdb"></path><path d="M66.6 205.5L103.1 215.5L141.1 152Z" fill="#fafcfd" stroke="#fafcfd"></path><path d="M141.1 152L103.1 215.5L219.7 223.5Z" fill="#dfdede" stroke="#dfdede"></path><path d="M136.1 284L81.6 349.5L151.1 320.5Z" fill="#ededee" stroke="#ededee"></path><path d="M203.7 0L164.1 0L201.7 38.5Z" fill="#f4f4f6" stroke="#f4f4f6"></path><path d="M884.4 55.5L907.4 0L853.9 32.5Z" fill="#f0f1f2" stroke="#f0f1f2"></path><path d="M960 59.5L907.4 0L884.4 55.5Z" fill="#f7f8f9" stroke="#f7f8f9"></path><path d="M167.7 476.5L240.7 540L271.3 472.5Z" fill="#eae9ea" stroke="#eae9ea"></path><path d="M960 198.5L960 130L885.4 182.5Z" fill="#dfdede" stroke="#dfdede"></path><path d="M164.1 0L141.1 35.5L201.7 38.5Z" fill="#ededee" stroke="#ededee"></path><path d="M960 379L960 360.5L914.4 396Z" fill="#e3e2e2" stroke="#e3e2e2"></path><path d="M914.4 396L960 360.5L871.4 312.5Z" fill="#d8d7d7" stroke="#d8d7d7"></path><path d="M161.1 402L167.7 476.5L271.3 472.5Z" fill="#d8d7d7" stroke="#d8d7d7"></path><path d="M103.1 477.5L167.7 476.5L161.1 402Z" fill="#d8d7d7" stroke="#d8d7d7"></path><path d="M914.4 489.5L960 379L914.4 396Z" fill="#fafcfd" stroke="#fafcfd"></path><path d="M960 130L960 59.5L884.4 55.5Z" fill="#dfdede" stroke="#dfdede"></path><path d="M810.9 540L914.4 489.5L799.9 488.5Z" fill="#ededee" stroke="#ededee"></path><path d="M47.6 147L66.6 205.5L141.1 152Z" fill="#e6e5e6" stroke="#e6e5e6"></path><path d="M103.1 215.5L39.6 257L136.1 284Z" fill="#ededee" stroke="#ededee"></path><path d="M39.6 257L81.6 349.5L136.1 284Z" fill="#e3e2e2" stroke="#e3e2e2"></path><path d="M960 59.5L960 0L907.4 0Z" fill="#dcdbdb" stroke="#dcdbdb"></path><path d="M61.6 55.5L47.6 147L141.1 152Z" fill="#fafcfd" stroke="#fafcfd"></path><path d="M66.6 205.5L39.6 257L103.1 215.5Z" fill="#dfdede" stroke="#dfdede"></path><path d="M61.6 55.5L141.1 152L141.1 35.5Z" fill="#fafcfd" stroke="#fafcfd"></path><path d="M0 261L39.6 257L0 174.5Z" fill="#d8d7d7" stroke="#d8d7d7"></path><path d="M810.9 540L923.4 540L914.4 489.5Z" fill="#e6e5e6" stroke="#e6e5e6"></path><path d="M914.4 489.5L960 511.5L960 379Z" fill="#f4f4f6" stroke="#f4f4f6"></path><path d="M33.6 0L61.6 55.5L141.1 35.5Z" fill="#fafcfd" stroke="#fafcfd"></path><path d="M78.6 455.5L103.1 477.5L161.1 402Z" fill="#dcdbdb" stroke="#dcdbdb"></path><path d="M167.7 476.5L145.1 540L240.7 540Z" fill="#fafcfd" stroke="#fafcfd"></path><path d="M78.6 455.5L161.1 402L81.6 349.5Z" fill="#f4f4f6" stroke="#f4f4f6"></path><path d="M103.1 477.5L145.1 540L167.7 476.5Z" fill="#dcdbdb" stroke="#dcdbdb"></path><path d="M45.6 414L78.6 455.5L81.6 349.5Z" fill="#f0f1f2" stroke="#f0f1f2"></path><path d="M103.1 477.5L96.6 540L145.1 540Z" fill="#f7f8f9" stroke="#f7f8f9"></path><path d="M923.4 540L960 511.5L914.4 489.5Z" fill="#f0f1f2" stroke="#f0f1f2"></path><path d="M0 310.5L45.6 414L81.6 349.5Z" fill="#f7f8f9" stroke="#f7f8f9"></path><path d="M78.6 455.5L96.6 540L103.1 477.5Z" fill="#eae9ea" stroke="#eae9ea"></path><path d="M923.4 540L960 540L960 511.5Z" fill="#f4f4f6" stroke="#f4f4f6"></path><path d="M0 174.5L39.6 257L66.6 205.5Z" fill="#f7f8f9" stroke="#f7f8f9"></path><path d="M39.6 257L0 310.5L81.6 349.5Z" fill="#f4f4f6" stroke="#f4f4f6"></path><path d="M0 174.5L66.6 205.5L47.6 147Z" fill="#fafcfd" stroke="#fafcfd"></path><path d="M0 122L0 174.5L47.6 147Z" fill="#eae9ea" stroke="#eae9ea"></path><path d="M0 540L96.6 540L78.6 455.5Z" fill="#dcdbdb" stroke="#dcdbdb"></path><path d="M0 261L0 310.5L39.6 257Z" fill="#ededee" stroke="#ededee"></path><path d="M45.6 414L0 453.5L78.6 455.5Z" fill="#eae9ea" stroke="#eae9ea"></path><path d="M61.6 55.5L0 122L47.6 147Z" fill="#f0f1f2" stroke="#f0f1f2"></path><path d="M164.1 0L33.6 0L141.1 35.5Z" fill="#e6e5e6" stroke="#e6e5e6"></path><path d="M61.6 55.5L0 42.5L0 122Z" fill="#e3e2e2" stroke="#e3e2e2"></path><path d="M33.6 0L0 42.5L61.6 55.5Z" fill="#d8d7d7" stroke="#d8d7d7"></path><path d="M0 310.5L0 416L45.6 414Z" fill="#dfdede" stroke="#dfdede"></path><path d="M33.6 0L0 0L0 42.5Z" fill="#f4f4f6" stroke="#f4f4f6"></path><path d="M0 416L0 453.5L45.6 414Z" fill="#ededee" stroke="#ededee"></path><path d="M0 453.5L0 540L78.6 455.5Z" fill="#dcdbdb" stroke="#dcdbdb"></path></g></svg>